<?xml version="1.0" encoding="UTF-8"?>
<!DOCTYPE svg PUBLIC "-//W3C//DTD SVG 1.1//EN" "http://www.w3.org/Graphics/SVG/1.1/DTD/svg11.dtd">
<!-- Creator: CorelDRAW 2020 (64-Bit) -->
<svg xmlns="http://www.w3.org/2000/svg" xml:space="preserve" width="210mm" height="297mm" version="1.1" style="shape-rendering:geometricPrecision; text-rendering:geometricPrecision; image-rendering:optimizeQuality; fill-rule:evenodd; clip-rule:evenodd"
viewBox="0 0 21000 29700"
 xmlns:xlink="http://www.w3.org/1999/xlink"
 xmlns:xodm="http://www.corel.com/coreldraw/odm/2003">
 <defs>
  <style type="text/css">
   <![CDATA[
    .fil3 {fill:#898989}
    .fil2 {fill:#229B3C}
    .fil0 {fill:#67B437;fill-rule:nonzero}
    .fil1 {fill:#229B3C;fill-rule:nonzero}
   ]]>
  </style>
 </defs>
 <g id="Слой_x0020_1">
  <metadata id="CorelCorpID_0Corel-Layer"/>
  <g id="_1381759973808">
   <path class="fil0" d="M5548.91 4748.6c-95.7,-46.35 -202.05,-88.65 -320.09,-125.01 98.33,-80.68 206.7,-149.73 322.72,-205.07 -19.29,126.37 -16.34,237.06 -2.63,330.08z"/>
   <path class="fil0" d="M6922.17 4748.6c95.7,-46.35 202.05,-88.65 320.09,-125.01 -98.33,-80.68 -206.7,-149.73 -322.72,-205.07 19.29,126.37 16.34,237.06 2.63,330.08z"/>
   <path class="fil0" d="M5013.72 4836.28c-117.96,141.05 -212.38,302.77 -276.67,478.79 735.13,95.7 1165.91,323.77 1397,497.46 29.93,-490.89 -729.96,-880.13 -1120.33,-976.25z"/>
   <path class="fil1" d="M6349.7 6151.64c464.82,-509.43 941.09,-376.22 1446.07,47.67 -145.52,685.3 -731.44,1208.21 -1445.28,1263.71 -0.79,-1311.38 2.84,-1078.02 -0.79,-1311.38z"/>
   <path class="fil1" d="M6121.38 6151.64c-464.82,-509.43 -941.09,-376.22 -1446.07,47.67 145.52,685.3 731.44,1208.21 1445.28,1263.71 0.79,-1311.38 -2.84,-1078.02 0.79,-1311.38z"/>
   <path class="fil0" d="M7457.36 4836.28c117.96,141.05 212.38,302.77 276.67,478.79 -735.13,95.7 -1165.91,323.77 -1397,497.46 -29.93,-490.89 729.96,-880.13 1120.33,-976.25z"/>
   <path class="fil0" d="M6243.07 4261.83l-7.53 0.02 -7.53 -0.02c-77.02,0 -152.35,5.69 -226.36,15.95l0.89 1.99c-53.61,8.07 -106.37,18.8 -158.21,32.06l-0.36 0c-145.51,487.74 389.55,1214.16 391.57,1204.39 2.01,9.77 537.08,-716.62 391.57,-1204.39l-0.36 0c-51.84,-13.26 -104.6,-23.99 -158.21,-32.06l0.89 -1.99c-74.01,-10.26 -149.34,-15.95 -226.36,-15.95z"/>
   <path class="fil0" d="M5107.79 5648.87c-141.39,51.66 -302.42,129.05 -467.1,245.73 -0.69,-10.03 -0.69,-19.71 -0.69,-29.7 0,-100.35 9.34,-198.72 27.34,-294.11 162.7,20.06 309.09,46.72 440.45,78.08z"/>
   <path class="fil0" d="M7363.29 5648.87c141.39,51.66 302.42,129.05 467.1,245.73 0.69,-10.03 0.69,-19.71 0.69,-29.7 0,-100.35 -9.34,-198.72 -27.34,-294.11 -162.7,20.06 -309.09,46.72 -440.45,78.08z"/>
  </g>
  <g id="_1381759973328">
   <path class="fil2" d="M8941.11 5985.98c-241.28,0 -519.64,-111.36 -631.04,-338.7 -30.33,-61.88 -45.74,-128.55 -45.74,-197.47 0,-346.43 369.21,-536.16 676.78,-536.16 212.45,0 436.75,79.47 572.97,248.49l30.68 38.07 -156.75 132.25 -31.98 -40.77c-94.35,-120.27 -266.65,-172.08 -414.92,-172.08 -187.62,0 -474.31,106.84 -474.31,330.2 0,31.26 6,61.63 17.85,90.55 67.42,164.53 291.77,240.41 456.46,240.41 144.31,0 304.68,-48.27 403.38,-157.97l34.6 -38.44 146.43 141.03 -32.48 35.94c-138.65,153.41 -348.66,224.65 -551.93,224.65zm1994.38 -500.56l0 482.61 -209.2 0 0 -495.4c-239.13,11.66 -520.82,105.18 -697.32,262.65l0 232.75 -209.2 0 0 -1049.15 209.2 0 0 587.06c201.71,-127.7 462.68,-206.27 697.32,-218.27l0 -368.79 209.2 0 0 377.09c35.61,5.02 70.87,12.32 105.6,21.85l50.06 13.75 -56.62 179.47 -46.63 -13.09c-17.25,-4.85 -34.76,-9.04 -52.41,-12.53zm668.86 482.36l-209.2 0 0 -1049.4 209.2 0 0 1049.4zm532.99 -683.15l0 683.4 -202.22 0 0 -1049.4 143.49 0c30.91,0 50.16,31.85 66.88,52.7 24.48,30.52 48.93,61.05 73.52,91.49 79.78,98.76 160.65,196.67 243.16,293.17 77.78,90.96 292.3,313.56 433.48,382.95l-7.07 -834.27 200.76 0 8.26 1063.36 -101.5 0c-254.15,0 -535.21,-299.6 -688.46,-481.52 -56.02,-66.5 -114.57,-133.46 -170.3,-201.88zm1933.51 696.86c-233.27,0 -501.43,-95.87 -620.09,-310.09 -37.64,-67.95 -56.44,-142.45 -56.44,-220.09 0,-75.56 17.86,-148.3 53.26,-215.06 116.29,-219.28 386.24,-322.6 623.27,-322.6 237.94,0 509.07,103.92 624.84,324.78 34.69,66.18 52.19,138.17 52.19,212.88 0,76.04 -18.13,149.13 -54.39,216.01 -117.64,217 -387.8,314.17 -622.64,314.17zm1732.32 -326.74c-51.87,9.3 -104.43,14.1 -157.19,14.1 -97.24,0 -197.44,-2.47 -293.31,-21.35l0 320.03 -197.23 0 0 -388.61c-34.82,-18.41 -68.17,-39.62 -100.21,-62.48l-41.01 -29.25 115.76 -159.73 25.46 18.14 0 -307.1 43.12 -30.51 1.31 -0.78c34.42,-21.34 71.43,-37.03 109.86,-49.67 41.64,-13.71 84.58,-23.5 128.65,-30.88 58.76,-8.79 118.27,-13.01 177.68,-13.01 71.23,0 143.13,5.94 212.86,20.79 62.99,13.41 125.9,34.44 182.75,64.92 53.75,28.82 103.2,67.82 138.93,117.66 37.55,52.39 57.73,111.94 57.73,176.47 0,65.3 -20.56,125.49 -59.48,177.91 -36.19,48.75 -85.57,85.78 -137.82,113.51 -1.11,0.62 -2.23,1.24 -3.35,1.86l305.16 380.76 -255.07 0 -254.6 -312.78zm-1732.32 -538.88c-193.69,0 -474.31,103.56 -474.31,335.44 0,37.83 8.08,74.19 24.44,108.32 75.07,156.61 289.44,219.64 449.87,219.64 191.52,0 474.81,-95.85 474.81,-327.96 0,-37.44 -7.85,-73.53 -23.59,-107.51 -73.9,-159.57 -288.12,-227.93 -451.22,-227.93zm1281.82 34.47l0 295.46c7.92,2.17 15.79,4.18 23.55,6.03 86.22,18.93 181.75,19.79 269.76,19.79 89.01,0 191.97,-17.64 271.24,-59.73 27.2,-14.44 54.53,-33.58 73.12,-58.52 13.41,-17.99 20.75,-37.33 20.75,-59.88 0,-23.03 -7.32,-43.54 -20.65,-62.26 -17.68,-24.84 -45.34,-44.95 -71.93,-59.23 -87.66,-47.09 -204.2,-62.62 -302.45,-62.62 -77.92,0 -164.26,8.17 -238.82,32.45 -7.94,2.59 -16.3,5.4 -24.57,8.51z"/>
   <path class="fil3" d="M8814.69 6534.53l-207.7 355.74 -39.9 0 -207.72 -353.5 0 425.81 -77.69 0 0 -588.76 65.29 0 241.24 411.83 238.85 -411.83 65.32 0 0 588.76 -77.69 0 0 -428.05zm386.93 -88.71l0 182.31 294.14 0 0 71.19 -294.14 0 0 191.26 342.07 0 0 72 -422.19 0 0 -588.76 410.01 0 0 72 -329.89 0zm1083.58 222.38c0,54.1 -11.95,105.83 -39.58,152.56 -26.88,45.45 -64.45,80.03 -111.22,104.52 -50.85,26.62 -106.81,37.3 -163.89,37.3l-241.57 0 0 -588.76 241.57 0c57.08,0 113.04,10.67 163.89,37.29 46.77,24.49 84.34,59.07 111.22,104.53 27.63,46.73 39.58,98.45 39.58,152.56zm178.74 -294.38l80.12 0 0 588.76 -80.12 0 0 -588.76zm566.24 593.64c-55.39,0 -108.53,-11.82 -157.17,-38.62 -46.55,-25.65 -83.49,-61.41 -110.25,-107.32 -27.47,-47.14 -39.96,-98.83 -39.96,-153.32 0,-54.5 12.49,-106.19 39.96,-153.33 26.82,-46.01 63.96,-81.74 110.68,-107.32 48.8,-26.73 102.03,-38.61 157.56,-38.61 41.37,0 82.09,6.63 120.67,21.83 36.32,14.31 68.26,35.55 94.69,64.28l6.49 7.06 -52.08 52.08 -7.07 -7.15c-44.14,-44.67 -98.55,-64.47 -161.08,-64.47 -41.72,0 -81.35,9.22 -117.81,29.6 -34.9,19.5 -62.63,46.29 -82.77,80.82 -20.68,35.44 -29.92,74.24 -29.92,115.21 0,40.97 9.24,79.77 29.92,115.21 20.14,34.52 47.88,61.31 82.77,80.81 36.46,20.38 76.08,29.61 117.81,29.61 62.7,0 117.25,-19.82 160.99,-65.19l7.07 -7.33 52.17 52.17 -6.49 7.06c-26.54,28.84 -58.68,50.17 -95.07,64.67 -38.7,15.42 -79.53,22.25 -121.11,22.25zm736.66 -156.82l-303.94 0 -68.25 151.94 -84.6 0 269.15 -588.76 72.16 0 269.15 588.76 -85.41 0 -68.26 -151.94zm366.34 79.94l318.51 0 0 72 -398.63 0 0 -588.76 80.12 0 0 516.76zm868.33 76.88c-55.39,0 -108.53,-11.82 -157.17,-38.62 -46.55,-25.65 -83.49,-61.41 -110.25,-107.32 -27.47,-47.14 -39.96,-98.83 -39.96,-153.32 0,-54.5 12.49,-106.19 39.96,-153.33 26.82,-46.01 63.96,-81.74 110.68,-107.32 48.8,-26.73 102.03,-38.61 157.56,-38.61 41.37,0 82.09,6.63 120.67,21.83 36.32,14.31 68.26,35.55 94.69,64.28l6.49 7.06 -52.08 52.08 -7.07 -7.15c-44.14,-44.67 -98.55,-64.47 -161.08,-64.47 -41.72,0 -81.35,9.22 -117.81,29.6 -34.9,19.5 -62.63,46.29 -82.77,80.82 -20.68,35.44 -29.92,74.24 -29.92,115.21 0,40.97 9.24,79.77 29.92,115.21 20.14,34.52 47.88,61.31 82.77,80.81 36.46,20.38 76.08,29.61 117.81,29.61 62.7,0 117.25,-19.82 160.99,-65.19l7.07 -7.33 52.17 52.17 -6.49 7.06c-26.54,28.84 -58.68,50.17 -95.07,64.67 -38.7,15.42 -79.53,22.25 -121.11,22.25zm471.18 -521.64l0 182.31 294.14 0 0 71.19 -294.14 0 0 191.26 342.07 0 0 72 -422.19 0 0 -588.76 410.01 0 0 72 -329.89 0zm607.44 73.98l0 442.78 -80.12 0 0 -588.76 64.39 0 351.62 442.83 0 -442.83 79.31 0 0 588.76 -64.4 0 -350.8 -442.78zm754.82 -73.98l-199.88 0 0 -72 479.89 0 0 72 -199.88 0 0 516.76 -80.13 0 0 -516.76zm499.87 0l0 182.31 294.14 0 0 71.19 -294.14 0 0 191.26 342.07 0 0 72 -422.19 0 0 -588.76 410.01 0 0 72 -329.89 0zm790.93 334.49c-13.53,1.3 -27.13,1.89 -40.73,1.89l-142.76 0 0 180.38 -80.12 0 0 -588.76 222.88 0c63,0 127.7,12.77 177.07,54.35 46.08,38.8 65.31,91.04 65.31,150.65 0,42.79 -10.09,83.64 -35.66,118.45 -22.68,30.88 -53.36,51.82 -88.5,65.31l142.5 200 -90.38 0 -129.61 -182.27zm-6316.69 -334.49l0 444.76 158.2 0c43.81,0 87.14,-7.87 126.13,-28.5 34.92,-18.47 62.95,-44.25 83,-78.3 20.87,-35.43 29.5,-74.7 29.5,-115.58 0,-40.88 -8.63,-80.15 -29.5,-115.58 -20.05,-34.06 -48.08,-59.84 -83,-78.31 -38.98,-20.63 -82.32,-28.49 -126.13,-28.49l-158.2 0zm1926.9 296.07l-121.09 -271 -121.08 271 242.17 0zm4206.3 -296.07l0 265.19 141.13 0c42.19,0 89.37,-7.11 122.78,-35.04 29.9,-25.01 41.1,-59 41.1,-97.15 0,-38.46 -10.82,-73.31 -41.06,-98.32 -33.47,-27.69 -80.74,-34.68 -122.82,-34.68l-141.13 0z"/>
  </g>
  <g id="_1381759973040">
   <g>
    <path class="fil0" d="M9806.24 12359.31c-95.7,-46.35 -202.05,-88.65 -320.09,-125.01 98.33,-80.68 206.7,-149.73 322.72,-205.07 -19.29,126.37 -16.34,237.06 -2.63,330.08z"/>
    <path class="fil0" d="M11179.5 12359.31c95.7,-46.35 202.05,-88.65 320.09,-125.01 -98.33,-80.68 -206.7,-149.73 -322.72,-205.07 19.29,126.37 16.34,237.06 2.63,330.08z"/>
    <path class="fil0" d="M9271.05 12446.99c-117.96,141.05 -212.38,302.77 -276.67,478.79 735.13,95.7 1165.91,323.77 1397,497.46 29.93,-490.89 -729.96,-880.13 -1120.33,-976.25z"/>
    <path class="fil1" d="M10607.03 13762.35c464.82,-509.43 941.09,-376.22 1446.07,47.67 -145.52,685.3 -731.44,1208.21 -1445.28,1263.71 -0.79,-1311.38 2.84,-1078.02 -0.79,-1311.38z"/>
    <path class="fil1" d="M10378.71 13762.35c-464.82,-509.43 -941.09,-376.22 -1446.07,47.67 145.52,685.3 731.44,1208.21 1445.28,1263.71 0.79,-1311.38 -2.84,-1078.02 0.79,-1311.38z"/>
    <path class="fil0" d="M11714.69 12446.99c117.96,141.05 212.38,302.77 276.67,478.79 -735.13,95.7 -1165.91,323.77 -1397,497.46 -29.93,-490.89 729.96,-880.13 1120.33,-976.25z"/>
    <path class="fil0" d="M10500.4 11872.54l-7.53 0.02 -7.53 -0.02c-77.02,0 -152.35,5.69 -226.36,15.95l0.89 1.99c-53.61,8.07 -106.37,18.8 -158.21,32.06l-0.36 0c-145.51,487.74 389.55,1214.16 391.57,1204.39 2.01,9.77 537.08,-716.62 391.57,-1204.39l-0.36 0c-51.84,-13.26 -104.6,-23.99 -158.21,-32.06l0.89 -1.99c-74.01,-10.26 -149.34,-15.95 -226.36,-15.95z"/>
    <path class="fil0" d="M9365.12 13259.58c-141.39,51.66 -302.42,129.05 -467.1,245.73 -0.69,-10.03 -0.69,-19.71 -0.69,-29.7 0,-100.35 9.34,-198.72 27.34,-294.11 162.7,20.06 309.09,46.72 440.45,78.08z"/>
    <path class="fil0" d="M11620.62 13259.58c141.39,51.66 302.42,129.05 467.1,245.73 0.69,-10.03 0.69,-19.71 0.69,-29.7 0,-100.35 -9.34,-198.72 -27.34,-294.11 -162.7,20.06 -309.09,46.72 -440.45,78.08z"/>
   </g>
   <g>
    <path class="fil2" d="M7128.94 16847.03c-241.28,0 -519.64,-111.36 -631.04,-338.7 -30.33,-61.88 -45.74,-128.55 -45.74,-197.47 0,-346.43 369.21,-536.16 676.78,-536.16 212.45,0 436.75,79.47 572.97,248.49l30.68 38.07 -156.75 132.25 -31.98 -40.77c-94.35,-120.27 -266.65,-172.08 -414.92,-172.08 -187.62,0 -474.31,106.84 -474.31,330.2 0,31.26 6,61.63 17.85,90.55 67.42,164.53 291.77,240.41 456.46,240.41 144.31,0 304.68,-48.27 403.38,-157.97l34.6 -38.44 146.43 141.03 -32.48 35.94c-138.65,153.41 -348.66,224.65 -551.93,224.65zm1994.38 -500.56l0 482.61 -209.2 0 0 -495.4c-239.13,11.66 -520.82,105.18 -697.32,262.65l0 232.75 -209.2 0 0 -1049.15 209.2 0 0 587.06c201.71,-127.7 462.68,-206.27 697.32,-218.27l0 -368.79 209.2 0 0 377.09c35.61,5.02 70.87,12.32 105.6,21.85l50.06 13.75 -56.62 179.47 -46.63 -13.09c-17.25,-4.85 -34.76,-9.04 -52.41,-12.53zm668.86 482.36l-209.2 0 0 -1049.4 209.2 0 0 1049.4zm532.99 -683.15l0 683.4 -202.22 0 0 -1049.4 143.49 0c30.91,0 50.16,31.85 66.88,52.7 24.48,30.52 48.93,61.05 73.52,91.49 79.78,98.76 160.65,196.67 243.16,293.17 77.78,90.96 292.3,313.56 433.48,382.95l-7.07 -834.27 200.76 0 8.26 1063.36 -101.5 0c-254.15,0 -535.21,-299.6 -688.46,-481.52 -56.02,-66.5 -114.57,-133.46 -170.3,-201.88zm1933.51 696.86c-233.27,0 -501.43,-95.87 -620.09,-310.09 -37.64,-67.95 -56.44,-142.45 -56.44,-220.09 0,-75.56 17.86,-148.3 53.26,-215.06 116.29,-219.28 386.24,-322.6 623.27,-322.6 237.94,0 509.07,103.92 624.84,324.78 34.69,66.18 52.19,138.17 52.19,212.88 0,76.04 -18.13,149.13 -54.39,216.01 -117.64,217 -387.8,314.17 -622.64,314.17zm1732.32 -326.74c-51.87,9.3 -104.43,14.1 -157.19,14.1 -97.24,0 -197.44,-2.47 -293.31,-21.35l0 320.03 -197.23 0 0 -388.61c-34.82,-18.41 -68.17,-39.62 -100.21,-62.48l-41.01 -29.25 115.76 -159.73 25.46 18.14 0 -307.1 43.12 -30.51 1.31 -0.78c34.42,-21.34 71.43,-37.03 109.86,-49.67 41.64,-13.71 84.58,-23.5 128.65,-30.88 58.76,-8.79 118.27,-13.01 177.68,-13.01 71.23,0 143.13,5.94 212.86,20.79 62.99,13.41 125.9,34.44 182.75,64.92 53.75,28.82 103.2,67.82 138.93,117.66 37.55,52.39 57.73,111.94 57.73,176.47 0,65.3 -20.56,125.49 -59.48,177.91 -36.19,48.75 -85.57,85.78 -137.82,113.51 -1.11,0.62 -2.23,1.24 -3.35,1.86l305.16 380.76 -255.07 0 -254.6 -312.78zm-1732.32 -538.88c-193.69,0 -474.31,103.56 -474.31,335.44 0,37.83 8.08,74.19 24.44,108.32 75.07,156.61 289.44,219.64 449.87,219.64 191.52,0 474.81,-95.85 474.81,-327.96 0,-37.44 -7.85,-73.53 -23.59,-107.51 -73.9,-159.57 -288.12,-227.93 -451.22,-227.93zm1281.82 34.47l0 295.46c7.92,2.17 15.79,4.18 23.55,6.03 86.22,18.93 181.75,19.79 269.76,19.79 89.01,0 191.97,-17.64 271.24,-59.73 27.2,-14.44 54.53,-33.58 73.12,-58.52 13.41,-17.99 20.75,-37.33 20.75,-59.88 0,-23.03 -7.32,-43.54 -20.65,-62.26 -17.68,-24.84 -45.34,-44.95 -71.93,-59.23 -87.66,-47.09 -204.2,-62.62 -302.45,-62.62 -77.92,0 -164.26,8.17 -238.82,32.45 -7.94,2.59 -16.3,5.4 -24.57,8.51z"/>
    <path class="fil3" d="M7002.52 17395.58l-207.7 355.74 -39.9 0 -207.72 -353.5 0 425.81 -77.69 0 0 -588.76 65.29 0 241.24 411.83 238.85 -411.83 65.32 0 0 588.76 -77.69 0 0 -428.05zm386.93 -88.71l0 182.31 294.14 0 0 71.19 -294.14 0 0 191.26 342.07 0 0 72 -422.19 0 0 -588.76 410.01 0 0 72 -329.89 0zm1083.58 222.38c0,54.1 -11.95,105.83 -39.58,152.56 -26.88,45.45 -64.45,80.03 -111.22,104.52 -50.85,26.62 -106.81,37.3 -163.89,37.3l-241.57 0 0 -588.76 241.57 0c57.08,0 113.04,10.67 163.89,37.29 46.77,24.49 84.34,59.07 111.22,104.53 27.63,46.73 39.58,98.45 39.58,152.56zm178.74 -294.38l80.12 0 0 588.76 -80.12 0 0 -588.76zm566.24 593.64c-55.39,0 -108.53,-11.82 -157.17,-38.62 -46.55,-25.65 -83.49,-61.41 -110.25,-107.32 -27.47,-47.14 -39.96,-98.83 -39.96,-153.32 0,-54.5 12.49,-106.19 39.96,-153.33 26.82,-46.01 63.96,-81.74 110.68,-107.32 48.8,-26.73 102.03,-38.61 157.56,-38.61 41.37,0 82.09,6.63 120.67,21.83 36.32,14.31 68.26,35.55 94.69,64.28l6.49 7.06 -52.08 52.08 -7.07 -7.15c-44.14,-44.67 -98.55,-64.47 -161.08,-64.47 -41.72,0 -81.35,9.22 -117.81,29.6 -34.9,19.5 -62.63,46.29 -82.77,80.82 -20.68,35.44 -29.92,74.24 -29.92,115.21 0,40.97 9.24,79.77 29.92,115.21 20.14,34.52 47.88,61.31 82.77,80.81 36.46,20.38 76.08,29.61 117.81,29.61 62.7,0 117.25,-19.82 160.99,-65.19l7.07 -7.33 52.17 52.17 -6.49 7.06c-26.54,28.84 -58.68,50.17 -95.07,64.67 -38.7,15.42 -79.53,22.25 -121.11,22.25zm736.66 -156.82l-303.94 0 -68.25 151.94 -84.6 0 269.15 -588.76 72.16 0 269.15 588.76 -85.41 0 -68.26 -151.94zm366.34 79.94l318.51 0 0 72 -398.63 0 0 -588.76 80.12 0 0 516.76zm868.33 76.88c-55.39,0 -108.53,-11.82 -157.17,-38.62 -46.55,-25.65 -83.49,-61.41 -110.25,-107.32 -27.47,-47.14 -39.96,-98.83 -39.96,-153.32 0,-54.5 12.49,-106.19 39.96,-153.33 26.82,-46.01 63.96,-81.74 110.68,-107.32 48.8,-26.73 102.03,-38.61 157.56,-38.61 41.37,0 82.09,6.63 120.67,21.83 36.32,14.31 68.26,35.55 94.69,64.28l6.49 7.06 -52.08 52.08 -7.07 -7.15c-44.14,-44.67 -98.55,-64.47 -161.08,-64.47 -41.72,0 -81.35,9.22 -117.81,29.6 -34.9,19.5 -62.63,46.29 -82.77,80.82 -20.68,35.44 -29.92,74.24 -29.92,115.21 0,40.97 9.24,79.77 29.92,115.21 20.14,34.52 47.88,61.31 82.77,80.81 36.46,20.38 76.08,29.61 117.81,29.61 62.7,0 117.25,-19.82 160.99,-65.19l7.07 -7.33 52.17 52.17 -6.49 7.06c-26.54,28.84 -58.68,50.17 -95.07,64.67 -38.7,15.42 -79.53,22.25 -121.11,22.25zm471.18 -521.64l0 182.31 294.14 0 0 71.19 -294.14 0 0 191.26 342.07 0 0 72 -422.19 0 0 -588.76 410.01 0 0 72 -329.89 0zm607.44 73.98l0 442.78 -80.12 0 0 -588.76 64.39 0 351.62 442.83 0 -442.83 79.31 0 0 588.76 -64.4 0 -350.8 -442.78zm754.82 -73.98l-199.88 0 0 -72 479.89 0 0 72 -199.88 0 0 516.76 -80.13 0 0 -516.76zm499.87 0l0 182.31 294.14 0 0 71.19 -294.14 0 0 191.26 342.07 0 0 72 -422.19 0 0 -588.76 410.01 0 0 72 -329.89 0zm790.93 334.49c-13.53,1.3 -27.13,1.89 -40.73,1.89l-142.76 0 0 180.38 -80.12 0 0 -588.76 222.88 0c63,0 127.7,12.77 177.07,54.35 46.08,38.8 65.31,91.04 65.31,150.65 0,42.79 -10.09,83.64 -35.66,118.45 -22.68,30.88 -53.36,51.82 -88.5,65.31l142.5 200 -90.38 0 -129.61 -182.27zm-6316.69 -334.49l0 444.76 158.2 0c43.81,0 87.14,-7.87 126.13,-28.5 34.92,-18.47 62.95,-44.25 83,-78.3 20.87,-35.43 29.5,-74.7 29.5,-115.58 0,-40.88 -8.63,-80.15 -29.5,-115.58 -20.05,-34.06 -48.08,-59.84 -83,-78.31 -38.98,-20.63 -82.32,-28.49 -126.13,-28.49l-158.2 0zm1926.9 296.07l-121.09 -271 -121.08 271 242.17 0zm4206.3 -296.07l0 265.19 141.13 0c42.19,0 89.37,-7.11 122.78,-35.04 29.9,-25.01 41.1,-59 41.1,-97.15 0,-38.46 -10.82,-73.31 -41.06,-98.32 -33.47,-27.69 -80.74,-34.68 -122.82,-34.68l-141.13 0z"/>
   </g>
  </g>
 </g>
</svg>
